<mxfile host="app.diagrams.net" agent="Mozilla/5.0 (Windows NT 10.0; Win64; x64) AppleWebKit/537.36 (KHTML, like Gecko) Chrome/127.0.0.0 Safari/537.36" version="24.7.8">
  <diagram name="Page-1" id="c37626ed-c26b-45fb-9056-f9ebc6bb27b6">
    <mxGraphModel dx="2780" dy="3725" grid="1" gridSize="10" guides="1" tooltips="1" connect="1" arrows="1" fold="1" page="1" pageScale="1" pageWidth="1100" pageHeight="850" background="none" math="0" shadow="0">
      <root>
        <mxCell id="0" />
        <mxCell id="1" parent="0" />
        <mxCell id="w4msts3daRkih6hlYQt3-113" style="edgeStyle=none;rounded=0;orthogonalLoop=1;jettySize=auto;html=1;exitX=1;exitY=0;exitDx=0;exitDy=0;startArrow=classic;startFill=1;" edge="1" parent="1" source="w4msts3daRkih6hlYQt3-111" target="w4msts3daRkih6hlYQt3-43">
          <mxGeometry relative="1" as="geometry" />
        </mxCell>
        <mxCell id="w4msts3daRkih6hlYQt3-111" value="物联网" style="rounded=0;whiteSpace=wrap;html=1;movable=1;resizable=1;rotatable=1;deletable=1;editable=1;locked=0;connectable=1;verticalAlign=top;fontSize=18;fontStyle=1" vertex="1" parent="1">
          <mxGeometry x="1580" y="-178" width="780" height="180" as="geometry" />
        </mxCell>
        <mxCell id="w4msts3daRkih6hlYQt3-87" value="数字底座" style="rounded=0;whiteSpace=wrap;html=1;movable=1;resizable=1;rotatable=1;deletable=1;editable=1;locked=0;connectable=1;verticalAlign=top;fontSize=18;fontStyle=1" vertex="1" parent="1">
          <mxGeometry x="1580" y="-610" width="780" height="330" as="geometry" />
        </mxCell>
        <mxCell id="w4msts3daRkih6hlYQt3-85" value="低代码" style="rounded=0;whiteSpace=wrap;html=1;movable=1;resizable=1;rotatable=1;deletable=1;editable=1;locked=0;connectable=1;verticalAlign=top;align=center;fontSize=18;fontStyle=1" vertex="1" parent="1">
          <mxGeometry x="2741.805" y="-820" width="880.13" height="540" as="geometry" />
        </mxCell>
        <mxCell id="w4msts3daRkih6hlYQt3-42" value="" style="shape=flexArrow;endArrow=classic;startArrow=classic;html=1;rounded=0;" edge="1" parent="1">
          <mxGeometry width="100" height="100" relative="1" as="geometry">
            <mxPoint x="3180" y="-830" as="sourcePoint" />
            <mxPoint x="3181" y="-910" as="targetPoint" />
          </mxGeometry>
        </mxCell>
        <mxCell id="w4msts3daRkih6hlYQt3-39" value="" style="rounded=0;whiteSpace=wrap;html=1;movable=1;resizable=1;rotatable=1;deletable=1;editable=1;locked=0;connectable=1;" vertex="1" parent="1">
          <mxGeometry x="2741.8" y="-1100" width="880" height="180" as="geometry" />
        </mxCell>
        <mxCell id="w4msts3daRkih6hlYQt3-102" value="" style="edgeStyle=none;rounded=0;orthogonalLoop=1;jettySize=auto;html=1;startArrow=classic;startFill=1;" edge="1" parent="1" source="w4msts3daRkih6hlYQt3-43" target="w4msts3daRkih6hlYQt3-87">
          <mxGeometry relative="1" as="geometry" />
        </mxCell>
        <mxCell id="w4msts3daRkih6hlYQt3-103" value="" style="edgeStyle=none;rounded=0;orthogonalLoop=1;jettySize=auto;html=1;startArrow=classic;startFill=1;" edge="1" parent="1" source="w4msts3daRkih6hlYQt3-43">
          <mxGeometry relative="1" as="geometry">
            <mxPoint x="2740" y="-445" as="targetPoint" />
          </mxGeometry>
        </mxCell>
        <mxCell id="w4msts3daRkih6hlYQt3-43" value="" style="shape=image;verticalLabelPosition=bottom;labelBackgroundColor=default;verticalAlign=top;aspect=fixed;imageAspect=0;image=data:image/png,iVBORw0KGgoAAAANSUhEUgAAAM4AAAAoCAMAAACB3DVpAAAABGdBTUEAALGPC/xhBQAAAJxQTFRFMbb+P5X/Jsz6OqH/Htr3KcT7Na3+NK7+Htv5Hd74P5X/Htz4PZj+M6/9Jsv5LjA0LjAzINb4Op/+LjA0LTA0LjA0LjA0LzA0KsP6LjA0Lb37LjA0LjAzLjA0LjA0Li80LjAzMHqmAAAAJNL8Htz5M7P+HOf9Lrv7P5f/OKX+Jsv6K8D7O57+IdX4KMb7NKz9G+H3QZH/LzE1LjA032tU2AAAACN0Uk5T9POmsFQs59G219Hsi0Q5r250XMeag9sji3UcRzPq9l4VCgBOQdioAAAHiElEQVRo3pWZh5aiMBSGLWNHEWwM1aBi1zG+/7ttOqnoZmb27JGofPy3p1WW5SbdlJaVFmQlwHZxmxSJ9V3SAr0wHJ/7XtiLy88rngad+6QTzBo2gzQp9LWVN7TKjZ/B3N+a713lEKLfzHIJ/K7xRT9tuL3QG7dv59vtdj7f+t2wmagXDSe7/e6+21f7ySjoWTcl/hqaS7mH1nYB4RvChXnTK7p9baqz9cmVN8wK12MMxydEgv8wz/l86HtuoOnwscPrTtYeIXVmJswCf6W5VJyCbEFP2nj/L3m3RR2wYB+LBErs9zc+4UVwzviHAIUOK+tcdhf8e78wnP1fVXViw1betqWps4LszlYWdfCF9dZ+gb7Naore63WiPEKd8/P5PHRtAv30d5fH5SJo7nsE9PdXjX7U73w7VipbT2vJ98HCUMd+w6n8yXBp0nRPCOdFxGHyYJzz83AYmE4RPHYXBnMRNAjnr/oL6l2Fk0YzthonT63qZLrv+NAtNrad8eulqCNwkD593Sei6wOti6IOxUFAgmebfYtTqwjXG5s6urGl6ifr8oBum+C8alt7chqkj8YTPR4cB0W1OwoG1Z7Lg3h+dFOzRDbFe1u/9d3BBbCpo+EsmU9Cu/d4rxdX5zbuhtPZNPQGt6cA6k9VGqQOdp37DqWcn9nsJxhO/hgNWhQerPmXrZcf8o6Eoz1puzpcd7jI2ZvmSkx7sYVgQvF0Zl3CguU5SjzR43pl6kwCESbiCAFRmmoEZIOAK/AhFys4b/j70XcKJk6+8TmXbGpjTtP21KTaFzytqUkzjOVv6Q0rpg51nyK3Wc8XOHmhqWNUBQuWpxZlAs1gEAoaPcn0BhgG/1wH5K5AdCUL0ewi7T5Bh/FUEyzanD24Vfl/OEiLtNl3Uu45RbllFi2ZqBDnZaZMwoPVYdEaa0PVuUTmU+f6EHnYPSq28xWO7CpWdXjWxdv4/+sdwnM8W/YfYHGOg5hq8zgeMc71sYtsm0eS91B14P+oA43wZlMHZJIim1opNay9xtb6DPMImuuRm1pkvbGfqg5uCX+G3/oOzEQdli8bqgKWnWnKBXowELbmOaqzAaMpO9fjkahzddCU5ai2tpQH0cYSnuAwIdebBdTCm00dn5ZrDICXHryeiBlN21U8xxHVpoNc6NpMUwZUnmoo4g+JQEu+VkUKnDgZ2IhCgpXJFnU2uVLf6cGAu874Q1vXORyZOI/AuWvGcEZ1LNDKgny92rpwtmWSq+HNog4vNvhrcmCQwrTXaOOgeyQ4SJ5H4N4ZT6i14VjAn5vKg+PU3InDwzu/PVMdoIfmVFUrbHYdTnM9MnWOQdO+SVVnnsTa7WCmJXDhSJWeD2zqJPxyoiZV7kvf4WDHoTSPqBGHqjMh9zu3d2+Yx4kjan+yiRmshGOWNUqkEzjdZt+JjkQeZGzHBh5mbKxsKxNHjwCVPk3F2dZt85w3nTWOyDO1wYpgsPqfUBAdRSiIvgoF5NuXmXVYoGQjFafciFI8Tw3f4bVGLgWHpRwM4vanQN0Na55rM48cqBnQ3F/nfNVosjwaTu1zcO3nqjpgTV+AvtLMyZUBT6MhcKXRVsjtjWbRh4sHjCqtJSWvbvhKC184uhun7srhW7vCSw11esODgc9mHlQe4ChyDodWKIqc47dFjmOtWHEvWRsfTNUmpc9MxBVhV2r/I1cGH0vQJ+cpWXuAeBwlqOY6tklsZgQrQx1jtME9ZZO9bWU6+0xa7jY1CPGA9DuHw5XzMGuz8igNgmutmTwbWR09u4ipoKoOT7K5NppeyuUuD9Wv9tRodw6030HtaFw3PHhY0NC+/U3ijzjvvFGdOrwp6shOYpvskGBQy9NWKx3UXJ9pO3pQmmvav+2Gyl3rzbVjsQpSvnemjkxYt5xUnY1614ljxEs5ufecTqfxVBl90OGHNCogPGwwtVNHH4Jm1FD9AT83hhVcHQVHGTqyK0v4fttnvLyTp1bo1Ty3sRdOZ7PQG58FjW0w9bhgB6oHUxymDmvbxFjFSqTIZWmok9lGhpI6Yh61cgYYegl0X/XY8HzD/zyluaF1bEiGoBd6hFDtxRS0HhumlnFhDhV7Ab0ZEOq8jeEgVNUpFAlU0ZcsttH4D+qhLj0QaRzqBhfOg2B2ypBacpzUVqyJaQBxt1GFh/Qs76i+o4Q3qo5wEIsx8/zK3IroQ9WRcTDNwMyJwfUiDhB26ow6cA2SlUWyOklT1aTHcTL9qYuOiYBqjY0VHfKgh4qD00sbueOprv1AJBxRW5MPRO7agUgDDq2HaQ1RDV3qoI9g+ZGYEA8EmTXS/OopiR5XqQciz76rkuvw85ALpSEjXeW4yokD87lUElUTcfpm+ARIsK/RdkLtA8wEwCuDX+kwkcFQHATjxcB9mIg8RzoQqSZD1SpTR6sDFyxtxH8VCR04spE4YTmGLhZZvihoIGC7HIOhJbten7ACMPXabX729s1RL3Odaj8ZRj0jVVvWO/PrU/UA8VRR2eIh3X7cvqUvb1O6XEfv/Lo8KgIodk69/u3mhbOP4z60PZ4Gw/t9GEwtKm7nv/qaF6niH7MhdrZ/lUK0kLYeen4AAAAASUVORK5CYII=;" vertex="1" parent="1">
          <mxGeometry x="2450" y="-465" width="206" height="40" as="geometry" />
        </mxCell>
        <mxCell id="w4msts3daRkih6hlYQt3-114" style="edgeStyle=none;rounded=0;orthogonalLoop=1;jettySize=auto;html=1;" edge="1" parent="1" source="w4msts3daRkih6hlYQt3-45" target="w4msts3daRkih6hlYQt3-111">
          <mxGeometry relative="1" as="geometry" />
        </mxCell>
        <mxCell id="w4msts3daRkih6hlYQt3-115" style="edgeStyle=none;rounded=0;orthogonalLoop=1;jettySize=auto;html=1;entryX=0.5;entryY=1;entryDx=0;entryDy=0;" edge="1" parent="1" source="w4msts3daRkih6hlYQt3-45" target="w4msts3daRkih6hlYQt3-85">
          <mxGeometry relative="1" as="geometry" />
        </mxCell>
        <mxCell id="w4msts3daRkih6hlYQt3-45" value="web-nginx" style="shape=image;verticalLabelPosition=bottom;labelBackgroundColor=default;verticalAlign=top;aspect=fixed;imageAspect=0;image=data:image/png,iVBORw0KGgoAAAANSUhEUgAAAGQAAABkCAYAAABw4pVUAAAACXBIWXMAAAsTAAALEwEAmpwYAAAHuUlEQVR4nO1da2wVRRT+WlpppVWqVkVi8a0FfGB8AT6CafSHb2M1xkfQxGJM1IiKf3xFo6KJP6o2aqIhtCZYjYlKjNj6SE21ggYfKFao1QKiiC1SsFBoe82Ys+Q6mZ2Z3Tt7u7v3fMkmpMzOzp1vd+bMOWe+AZKNMgCLAPTStYj+xsgzigHUEwkZ6doIoAHABGYlP6gDsFpBhHz9QKQxIsJ0AMstiJCvdgCzmBV3qAGwFMCoodPbNf8/SnWIuhghUQHgUQBDAYYlMZx9rSk/DKARwGRmxR6lNClv0XTsJs3E7U34v2ju7wfwAFtkehRRR/ZoOnIHfTXlFsTuB+BuANs09fURsYJERhZmA+jUdNweAC8DOCxErx0EYDGA3Zr6vwQwjxkBTgLwhsFKWg7gOAedJSb0ZgBjBuPg1EIk5gh64/dqOqcLwLkRPPtMAJ8YLDLxkkxDAWASTaaDmg7pztOCTlhk32ra8Q8NdQcixZbT75oO2EqTcEke2yUm85sBbNa06y96iSYiJRBv4hrND95Jb+IB49jG/anTt2va+RN9ucIaTCTOBtCh+YF7aR45HPHBIfRyDGvavRLA+UgQTqBJ0WTNnIzk/4aZiDEOtny7LkCyvvJPE/aV7xt//9Y0/FeaPJM6/l4GYJ3FPFg5no30LJTfCsRCKSVL8Q/N7/1zHCxFFLoNP8liLfVjvoJjZwD4mFe5//M2jGj643MAcxEBaujhpiBRIfqBag3+uDH6fxf+uH2e0l2aB34F4EIXD0s45gD4zMJjfWiYym1iCRs4lhB5TOc/nEZmqi7atjAlllNUmEh91G9YClgN8W0+FYhh6xkAVQ7M5asBvE6N2kUNXwPgTQA35NGvNY2G5G9oLSGutQCayIDJFVXUZ35D/gqbSr6XbhITeYuj+ECtIQkhk2U2PxhhzHsCDRt7DO1odfACgvquRWEUib4OTMgCuMEsw2o+4+NhPQbuyWgN2IZQE7ECC1wQUu/IvaKblzIG4+F4uMNDIdrQ6SgRoj4uhCz0Wc02kLkorvkA3vJZaAkypzhyr8vJDuJ5S8hfJdpxj4975MY0EdIl1dmlmR9m0iQrd8hqB8672xXe2ssV5aoVpuuHSBEh8nrmSkP5KgCrFKS8T06+sGiU6lumKXuFwlGaGkLkjp1hcU81gPWKe1/NoR0tUl1PacrOUDy7oAkBWViq8fwRuCHkSU1ZJkSTR7VT4bC7BcHBhOT4hXi4RJFUJxZ1FyMYmBBHhIBMZLmewYCbcZgQh4QIPK2oa3MAtw4T4piQIkqYVm3csfE5MSGOCfFiNartax0WIQEmJAJCQO55VZJFq8HnxIRERIjAVHI8ynWLecYPTEiEhHh+L1WY+S6owYSEIKQEwLMUyFps4bu6SBFoGiFfFBPigJA7pLLNFimo8xWJ0SLqeI5Ujr+QEIQ8ryiv8zl5eNgntTM7H4oJCUHIC4ry4rrTgpQmxX0/Z+3eZUIcEjJC2SqmePk7intXUU4uE+KQkAzJbIgwqyl+/4XP9uplAYZCdr9bEOLNC6akhyk+0hpyPJ0JCfGFDCk6tsciNafWkDnIhIQcsl4C8LaPHIZQDNLhPEOiOH8hIQhponlBzlwR13sWu5XqNdsomJCQhHg5Vap9fq/AjHuZEPeEeNuVtyrqE9mIQVOAxPWEpjxbWRaEeFJO8kQ/Ru4THYopMzL7vus15ZkQS0JAiXYjIZIeyqh+kRn5uCF2woQEIESX9HA63IAJCUgIyD2vWji62GDJhIQgpIjkX2VS1lMqai5gQkIQAgpgtfnoqoj1S1gwISEJ8ZIeVFvl3s1BA54JyYEQT1mhT0HKiwgHJiRHQjx9+AEFKfchOJgQB4SA1N52KxaONwWshwlxRIjAdQqH4jCpGNmCCXFIiMD9iqFrewCBHCbEJ1EhLCECzylI2UBZjwVNiBy5u0ZTtk0q+1gOz1U5FDMk42GKOF4l3SOMhdQQ0qHokEqfJLkxqey1OT673Efov1vj9ypX7AIW0kupIeQ2RYf00t/nkBt8haLMthxX29mKqd2K+kcpPHwrKb/NpZdiXYB84UQSUmLQaPS7GuAOR/pss7a5ehwJ4dTHSXzmaIOCaUa6GiOQlRWT+XcByRhwKJjsRHzGpTyTcG98ZOiAQZLAiErjt5QOoNxhQcZKR8I3OckzfRCxgBlogbaEhpAhipN3kvyq0HnMBypp7molI2OA2iJygV8jMZqiOAiYiYUTS/xFL/HXS0kbVmARzBiJYGaDZWJjIhMrg4WUcxdSPhbjKDV+FNKPqeMpNS6jkMX4K+Ikxp8NPq4C8TmuIht8oAvicaCL35FHuiNOhQeVjzzKM9JwKNiJaTgUTMZZlsfmudDjdYVUHpsngw+WjCGE1cFHr8YQfDhxTFFNAai4Ht/dTLGbgkMcD7g/xcGzEo/ZPpkhGclT6onIhPFY69ZHYs/7vAh+V6JR5DiWYBPT6SNjw8XZIKlFKXXSFk1HbqIyqr0fxUSsSuvEu/rJQRjVkUqpRAV9DSqtE+9aK3lV6wxnXA2TMTF5HH9X4lFD+whNp4y2GyynpVQXwxGmW1hkfmQF0YdnBEQdHX9kIkLIj1/KvZtfi6xXQcRGzYTPiBhllIUoiBGX+HeiLad/AVs7wo5CDgy0AAAAAElFTkSuQmCC;fontSize=14;" vertex="1" parent="1">
          <mxGeometry x="3141.8" y="-128" width="80" height="80" as="geometry" />
        </mxCell>
        <mxCell id="w4msts3daRkih6hlYQt3-82" style="edgeStyle=none;rounded=0;orthogonalLoop=1;jettySize=auto;html=1;" edge="1" parent="1" source="w4msts3daRkih6hlYQt3-47" target="w4msts3daRkih6hlYQt3-45">
          <mxGeometry relative="1" as="geometry" />
        </mxCell>
        <mxCell id="w4msts3daRkih6hlYQt3-47" value="kt-basics" style="sketch=0;outlineConnect=0;fontColor=#232F3E;gradientColor=none;fillColor=#232F3D;strokeColor=none;dashed=0;verticalLabelPosition=bottom;verticalAlign=top;align=center;html=1;fontSize=14;fontStyle=0;aspect=fixed;pointerEvents=1;shape=mxgraph.aws4.management_console2;" vertex="1" parent="1">
          <mxGeometry x="2942" y="70" width="78" height="69" as="geometry" />
        </mxCell>
        <mxCell id="w4msts3daRkih6hlYQt3-51" value="&lt;span style=&quot;color: rgb(35, 47, 62); font-family: Helvetica; font-size: 14px; font-style: normal; font-variant-ligatures: normal; font-variant-caps: normal; font-weight: 400; letter-spacing: normal; orphans: 2; text-align: center; text-indent: 0px; text-transform: none; widows: 2; word-spacing: 0px; -webkit-text-stroke-width: 0px; white-space: nowrap; background-color: rgb(251, 251, 251); text-decoration-thickness: initial; text-decoration-style: initial; text-decoration-color: initial; float: none; display: inline !important;&quot;&gt;seata-server&lt;/span&gt;" style="sketch=0;outlineConnect=0;fontColor=#232F3E;gradientColor=none;fillColor=#232F3D;strokeColor=none;dashed=0;verticalLabelPosition=bottom;verticalAlign=top;align=center;html=1;fontSize=14;fontStyle=0;aspect=fixed;pointerEvents=1;shape=mxgraph.aws4.servers;" vertex="1" parent="1">
          <mxGeometry x="2807" y="-1049" width="78" height="78" as="geometry" />
        </mxCell>
        <mxCell id="w4msts3daRkih6hlYQt3-52" value="rmq-broker" style="sketch=0;outlineConnect=0;fontColor=#232F3E;gradientColor=none;fillColor=#232F3D;strokeColor=none;dashed=0;verticalLabelPosition=bottom;verticalAlign=top;align=center;html=1;fontSize=14;fontStyle=0;aspect=fixed;pointerEvents=1;shape=mxgraph.aws4.servers;" vertex="1" parent="1">
          <mxGeometry x="2977" y="-1049" width="78" height="78" as="geometry" />
        </mxCell>
        <mxCell id="w4msts3daRkih6hlYQt3-55" value="&lt;span style=&quot;color: rgb(35, 47, 62); font-family: Helvetica; font-size: 14px; font-style: normal; font-variant-ligatures: normal; font-variant-caps: normal; font-weight: 400; letter-spacing: normal; orphans: 2; text-align: center; text-indent: 0px; text-transform: none; widows: 2; word-spacing: 0px; -webkit-text-stroke-width: 0px; white-space: nowrap; background-color: rgb(251, 251, 251); text-decoration-thickness: initial; text-decoration-style: initial; text-decoration-color: initial; display: inline !important; float: none;&quot;&gt;btd-es&lt;/span&gt;" style="sketch=0;outlineConnect=0;fontColor=#232F3E;gradientColor=none;fillColor=#232F3D;strokeColor=none;dashed=0;verticalLabelPosition=bottom;verticalAlign=top;align=center;html=1;fontSize=14;fontStyle=0;aspect=fixed;pointerEvents=1;shape=mxgraph.aws4.servers;" vertex="1" parent="1">
          <mxGeometry x="3148" y="-1049" width="78" height="78" as="geometry" />
        </mxCell>
        <mxCell id="w4msts3daRkih6hlYQt3-56" value="rmq-server" style="sketch=0;outlineConnect=0;fontColor=#232F3E;gradientColor=none;fillColor=#232F3D;strokeColor=none;dashed=0;verticalLabelPosition=bottom;verticalAlign=top;align=center;html=1;fontSize=14;fontStyle=0;aspect=fixed;pointerEvents=1;shape=mxgraph.aws4.servers;" vertex="1" parent="1">
          <mxGeometry x="3318" y="-1049" width="78" height="78" as="geometry" />
        </mxCell>
        <mxCell id="w4msts3daRkih6hlYQt3-83" style="edgeStyle=none;rounded=0;orthogonalLoop=1;jettySize=auto;html=1;" edge="1" parent="1" source="w4msts3daRkih6hlYQt3-63" target="w4msts3daRkih6hlYQt3-45">
          <mxGeometry relative="1" as="geometry" />
        </mxCell>
        <mxCell id="w4msts3daRkih6hlYQt3-63" value="&lt;span style=&quot;color: rgb(35, 47, 62); font-family: Helvetica; font-size: 14px; font-style: normal; font-variant-ligatures: normal; font-variant-caps: normal; font-weight: 400; letter-spacing: normal; orphans: 2; text-align: center; text-indent: 0px; text-transform: none; widows: 2; word-spacing: 0px; -webkit-text-stroke-width: 0px; white-space: nowrap; background-color: rgb(251, 251, 251); text-decoration-thickness: initial; text-decoration-style: initial; text-decoration-color: initial; display: inline !important; float: none;&quot;&gt;kt-portal&lt;/span&gt;" style="sketch=0;outlineConnect=0;fontColor=#232F3E;gradientColor=none;fillColor=#232F3D;strokeColor=none;dashed=0;verticalLabelPosition=bottom;verticalAlign=top;align=center;html=1;fontSize=14;fontStyle=0;aspect=fixed;pointerEvents=1;shape=mxgraph.aws4.management_console2;" vertex="1" parent="1">
          <mxGeometry x="3543.8" y="70" width="78" height="69" as="geometry" />
        </mxCell>
        <mxCell id="w4msts3daRkih6hlYQt3-70" value="&lt;span style=&quot;color: rgb(35, 47, 62); font-family: Helvetica; font-size: 14px; font-style: normal; font-variant-ligatures: normal; font-variant-caps: normal; font-weight: 400; letter-spacing: normal; orphans: 2; text-align: center; text-indent: 0px; text-transform: none; widows: 2; word-spacing: 0px; -webkit-text-stroke-width: 0px; white-space: nowrap; background-color: rgb(251, 251, 251); text-decoration-thickness: initial; text-decoration-style: initial; text-decoration-color: initial; display: inline !important; float: none;&quot;&gt;btd-mysql&lt;/span&gt;" style="sketch=0;outlineConnect=0;fontColor=#232F3E;gradientColor=none;fillColor=#232F3D;strokeColor=none;dashed=0;verticalLabelPosition=bottom;verticalAlign=top;align=center;html=1;fontSize=12;fontStyle=0;aspect=fixed;pointerEvents=1;shape=mxgraph.aws4.generic_database;" vertex="1" parent="1">
          <mxGeometry x="3497.74" y="-1049" width="59" height="78" as="geometry" />
        </mxCell>
        <mxCell id="w4msts3daRkih6hlYQt3-71" value="" style="rounded=0;whiteSpace=wrap;html=1;movable=1;resizable=1;rotatable=1;deletable=1;editable=1;locked=0;connectable=1;" vertex="1" parent="1">
          <mxGeometry x="1580" y="-900" width="780" height="180" as="geometry" />
        </mxCell>
        <mxCell id="w4msts3daRkih6hlYQt3-72" value="rabbitmq" style="sketch=0;outlineConnect=0;fontColor=#232F3E;gradientColor=none;fillColor=#232F3D;strokeColor=none;dashed=0;verticalLabelPosition=bottom;verticalAlign=top;align=center;html=1;fontSize=14;fontStyle=0;aspect=fixed;pointerEvents=1;shape=mxgraph.aws4.servers;" vertex="1" parent="1">
          <mxGeometry x="1641" y="-849" width="78" height="78" as="geometry" />
        </mxCell>
        <mxCell id="w4msts3daRkih6hlYQt3-73" value="minio" style="sketch=0;outlineConnect=0;fontColor=#232F3E;gradientColor=none;fillColor=#232F3D;strokeColor=none;dashed=0;verticalLabelPosition=bottom;verticalAlign=top;align=center;html=1;fontSize=14;fontStyle=0;aspect=fixed;pointerEvents=1;shape=mxgraph.aws4.servers;" vertex="1" parent="1">
          <mxGeometry x="1786" y="-849" width="78" height="78" as="geometry" />
        </mxCell>
        <mxCell id="w4msts3daRkih6hlYQt3-76" value="mysql" style="sketch=0;outlineConnect=0;fontColor=#232F3E;gradientColor=none;fillColor=#232F3D;strokeColor=none;dashed=0;verticalLabelPosition=bottom;verticalAlign=top;align=center;html=1;fontSize=14;fontStyle=0;aspect=fixed;pointerEvents=1;shape=mxgraph.aws4.generic_database;" vertex="1" parent="1">
          <mxGeometry x="2222" y="-849" width="59" height="78" as="geometry" />
        </mxCell>
        <mxCell id="w4msts3daRkih6hlYQt3-77" value="mysql-slave" style="sketch=0;outlineConnect=0;fontColor=#232F3E;gradientColor=none;fillColor=#232F3D;strokeColor=none;dashed=0;verticalLabelPosition=bottom;verticalAlign=top;align=center;html=1;fontSize=14;fontStyle=0;aspect=fixed;pointerEvents=1;shape=mxgraph.aws4.generic_database;" vertex="1" parent="1">
          <mxGeometry x="2080" y="-849" width="59" height="78" as="geometry" />
        </mxCell>
        <mxCell id="w4msts3daRkih6hlYQt3-80" value="redis" style="sketch=0;outlineConnect=0;fontColor=#232F3E;gradientColor=none;fillColor=#232F3D;strokeColor=none;dashed=0;verticalLabelPosition=bottom;verticalAlign=top;align=center;html=1;fontSize=14;fontStyle=0;aspect=fixed;pointerEvents=1;shape=mxgraph.aws4.generic_database;" vertex="1" parent="1">
          <mxGeometry x="1940.5" y="-849" width="59" height="78" as="geometry" />
        </mxCell>
        <mxCell id="w4msts3daRkih6hlYQt3-86" value="" style="group" vertex="1" connectable="0" parent="1">
          <mxGeometry x="2807" y="-775" width="749.7399999999998" height="450" as="geometry" />
        </mxCell>
        <mxCell id="w4msts3daRkih6hlYQt3-2" value="baiteda-app-runtime" style="sketch=0;outlineConnect=0;fontColor=#232F3E;gradientColor=none;fillColor=#232F3D;strokeColor=none;dashed=0;verticalLabelPosition=bottom;verticalAlign=top;align=center;html=1;fontSize=14;fontStyle=0;aspect=fixed;pointerEvents=1;shape=mxgraph.aws4.external_sdk;" vertex="1" parent="w4msts3daRkih6hlYQt3-86">
          <mxGeometry x="530" width="69.74" height="80" as="geometry" />
        </mxCell>
        <mxCell id="w4msts3daRkih6hlYQt3-3" value="baiteda-job-admin" style="sketch=0;outlineConnect=0;fontColor=#232F3E;gradientColor=none;fillColor=#232F3D;strokeColor=none;dashed=0;verticalLabelPosition=bottom;verticalAlign=top;align=center;html=1;fontSize=14;fontStyle=0;aspect=fixed;pointerEvents=1;shape=mxgraph.aws4.external_sdk;" vertex="1" parent="w4msts3daRkih6hlYQt3-86">
          <mxGeometry x="140" y="370" width="69.74" height="80" as="geometry" />
        </mxCell>
        <mxCell id="w4msts3daRkih6hlYQt3-7" value="baiteda-rule-config" style="sketch=0;outlineConnect=0;fontColor=#232F3E;gradientColor=none;fillColor=#232F3D;strokeColor=none;dashed=0;verticalLabelPosition=bottom;verticalAlign=top;align=center;html=1;fontSize=14;fontStyle=0;aspect=fixed;pointerEvents=1;shape=mxgraph.aws4.external_sdk;" vertex="1" parent="w4msts3daRkih6hlYQt3-86">
          <mxGeometry x="530" y="370" width="69.74" height="80" as="geometry" />
        </mxCell>
        <mxCell id="w4msts3daRkih6hlYQt3-8" value="aiteda-flow-runtime" style="sketch=0;outlineConnect=0;fontColor=#232F3E;gradientColor=none;fillColor=#232F3D;strokeColor=none;dashed=0;verticalLabelPosition=bottom;verticalAlign=top;align=center;html=1;fontSize=14;fontStyle=0;aspect=fixed;pointerEvents=1;shape=mxgraph.aws4.external_sdk;" vertex="1" parent="w4msts3daRkih6hlYQt3-86">
          <mxGeometry x="680" y="254" width="69.74" height="80" as="geometry" />
        </mxCell>
        <mxCell id="w4msts3daRkih6hlYQt3-9" value="baiteda-report" style="sketch=0;outlineConnect=0;fontColor=#232F3E;gradientColor=none;fillColor=#232F3D;strokeColor=none;dashed=0;verticalLabelPosition=bottom;verticalAlign=top;align=center;html=1;fontSize=14;fontStyle=0;aspect=fixed;pointerEvents=1;shape=mxgraph.aws4.external_sdk;" vertex="1" parent="w4msts3daRkih6hlYQt3-86">
          <mxGeometry x="680" y="114" width="69.74" height="80" as="geometry" />
        </mxCell>
        <mxCell id="w4msts3daRkih6hlYQt3-10" value="baiteda-resource-platform" style="sketch=0;outlineConnect=0;fontColor=#232F3E;gradientColor=none;fillColor=#232F3D;strokeColor=none;dashed=0;verticalLabelPosition=bottom;verticalAlign=top;align=center;html=1;fontSize=14;fontStyle=0;aspect=fixed;pointerEvents=1;shape=mxgraph.aws4.external_sdk;" vertex="1" parent="w4msts3daRkih6hlYQt3-86">
          <mxGeometry x="140" width="69.74" height="80" as="geometry" />
        </mxCell>
        <mxCell id="w4msts3daRkih6hlYQt3-11" value="baiteda-base-runtime" style="sketch=0;outlineConnect=0;fontColor=#232F3E;gradientColor=none;fillColor=#232F3D;strokeColor=none;dashed=0;verticalLabelPosition=bottom;verticalAlign=top;align=center;html=1;fontSize=14;fontStyle=0;aspect=fixed;pointerEvents=1;shape=mxgraph.aws4.external_sdk;" vertex="1" parent="w4msts3daRkih6hlYQt3-86">
          <mxGeometry x="334.1300000000001" width="69.74" height="80" as="geometry" />
        </mxCell>
        <mxCell id="w4msts3daRkih6hlYQt3-12" value="baiteda-rule-compute" style="sketch=0;outlineConnect=0;fontColor=#232F3E;gradientColor=none;fillColor=#232F3D;strokeColor=none;dashed=0;verticalLabelPosition=bottom;verticalAlign=top;align=center;html=1;fontSize=14;fontStyle=0;aspect=fixed;pointerEvents=1;shape=mxgraph.aws4.external_sdk;" vertex="1" parent="w4msts3daRkih6hlYQt3-86">
          <mxGeometry x="334.1300000000001" y="370" width="69.74" height="80" as="geometry" />
        </mxCell>
        <mxCell id="w4msts3daRkih6hlYQt3-14" style="rounded=0;orthogonalLoop=1;jettySize=auto;html=1;" edge="1" parent="w4msts3daRkih6hlYQt3-86" source="w4msts3daRkih6hlYQt3-13" target="w4msts3daRkih6hlYQt3-10">
          <mxGeometry relative="1" as="geometry" />
        </mxCell>
        <mxCell id="w4msts3daRkih6hlYQt3-15" style="edgeStyle=orthogonalEdgeStyle;rounded=0;orthogonalLoop=1;jettySize=auto;html=1;" edge="1" parent="w4msts3daRkih6hlYQt3-86" source="w4msts3daRkih6hlYQt3-13" target="w4msts3daRkih6hlYQt3-11">
          <mxGeometry relative="1" as="geometry" />
        </mxCell>
        <mxCell id="w4msts3daRkih6hlYQt3-16" style="rounded=0;orthogonalLoop=1;jettySize=auto;html=1;" edge="1" parent="w4msts3daRkih6hlYQt3-86" source="w4msts3daRkih6hlYQt3-13" target="w4msts3daRkih6hlYQt3-2">
          <mxGeometry relative="1" as="geometry" />
        </mxCell>
        <mxCell id="w4msts3daRkih6hlYQt3-21" style="edgeStyle=none;rounded=0;orthogonalLoop=1;jettySize=auto;html=1;" edge="1" parent="w4msts3daRkih6hlYQt3-86" source="w4msts3daRkih6hlYQt3-13" target="w4msts3daRkih6hlYQt3-9">
          <mxGeometry relative="1" as="geometry" />
        </mxCell>
        <mxCell id="w4msts3daRkih6hlYQt3-22" style="edgeStyle=none;rounded=0;orthogonalLoop=1;jettySize=auto;html=1;" edge="1" parent="w4msts3daRkih6hlYQt3-86" source="w4msts3daRkih6hlYQt3-13" target="w4msts3daRkih6hlYQt3-8">
          <mxGeometry relative="1" as="geometry" />
        </mxCell>
        <mxCell id="w4msts3daRkih6hlYQt3-23" style="edgeStyle=none;rounded=0;orthogonalLoop=1;jettySize=auto;html=1;" edge="1" parent="w4msts3daRkih6hlYQt3-86" source="w4msts3daRkih6hlYQt3-13" target="w4msts3daRkih6hlYQt3-7">
          <mxGeometry relative="1" as="geometry" />
        </mxCell>
        <mxCell id="w4msts3daRkih6hlYQt3-24" style="edgeStyle=none;rounded=0;orthogonalLoop=1;jettySize=auto;html=1;" edge="1" parent="w4msts3daRkih6hlYQt3-86" source="w4msts3daRkih6hlYQt3-13" target="w4msts3daRkih6hlYQt3-12">
          <mxGeometry relative="1" as="geometry" />
        </mxCell>
        <mxCell id="w4msts3daRkih6hlYQt3-25" style="edgeStyle=none;rounded=0;orthogonalLoop=1;jettySize=auto;html=1;" edge="1" parent="w4msts3daRkih6hlYQt3-86" source="w4msts3daRkih6hlYQt3-13" target="w4msts3daRkih6hlYQt3-3">
          <mxGeometry relative="1" as="geometry" />
        </mxCell>
        <mxCell id="w4msts3daRkih6hlYQt3-26" style="edgeStyle=none;rounded=0;orthogonalLoop=1;jettySize=auto;html=1;" edge="1" parent="w4msts3daRkih6hlYQt3-86" source="w4msts3daRkih6hlYQt3-13" target="w4msts3daRkih6hlYQt3-5">
          <mxGeometry relative="1" as="geometry" />
        </mxCell>
        <mxCell id="w4msts3daRkih6hlYQt3-27" style="edgeStyle=none;rounded=0;orthogonalLoop=1;jettySize=auto;html=1;" edge="1" parent="w4msts3daRkih6hlYQt3-86" source="w4msts3daRkih6hlYQt3-13" target="w4msts3daRkih6hlYQt3-6">
          <mxGeometry relative="1" as="geometry" />
        </mxCell>
        <mxCell id="w4msts3daRkih6hlYQt3-13" value="&lt;font style=&quot;font-size: 14px;&quot;&gt;openresty&lt;/font&gt;" style="sketch=0;outlineConnect=0;fontColor=#232F3E;gradientColor=none;fillColor=#232F3D;strokeColor=none;dashed=0;verticalLabelPosition=bottom;verticalAlign=top;align=center;html=1;fontSize=12;fontStyle=0;aspect=fixed;pointerEvents=1;shape=mxgraph.aws4.globe;" vertex="1" parent="w4msts3daRkih6hlYQt3-86">
          <mxGeometry x="330" y="185" width="78" height="78" as="geometry" />
        </mxCell>
        <mxCell id="w4msts3daRkih6hlYQt3-18" value="" style="group" vertex="1" connectable="0" parent="w4msts3daRkih6hlYQt3-86">
          <mxGeometry y="114" width="69.73999999999978" height="220" as="geometry" />
        </mxCell>
        <mxCell id="w4msts3daRkih6hlYQt3-5" value="baiteda-attachment-center" style="sketch=0;outlineConnect=0;fontColor=#232F3E;gradientColor=none;fillColor=#232F3D;strokeColor=none;dashed=0;verticalLabelPosition=bottom;verticalAlign=top;align=center;html=1;fontSize=14;fontStyle=0;aspect=fixed;pointerEvents=1;shape=mxgraph.aws4.external_sdk;" vertex="1" parent="w4msts3daRkih6hlYQt3-18">
          <mxGeometry y="140" width="69.74" height="80" as="geometry" />
        </mxCell>
        <mxCell id="w4msts3daRkih6hlYQt3-6" value="baiteda-app" style="sketch=0;outlineConnect=0;fontColor=#232F3E;gradientColor=none;fillColor=#232F3D;strokeColor=none;dashed=0;verticalLabelPosition=bottom;verticalAlign=top;align=center;html=1;fontSize=14;fontStyle=0;aspect=fixed;pointerEvents=1;shape=mxgraph.aws4.external_sdk;" vertex="1" parent="w4msts3daRkih6hlYQt3-18">
          <mxGeometry width="69.74" height="80" as="geometry" />
        </mxCell>
        <mxCell id="w4msts3daRkih6hlYQt3-89" value="" style="shape=flexArrow;endArrow=classic;startArrow=classic;html=1;rounded=0;" edge="1" parent="1">
          <mxGeometry width="100" height="100" relative="1" as="geometry">
            <mxPoint x="1969.23" y="-190" as="sourcePoint" />
            <mxPoint x="1970.23" y="-270" as="targetPoint" />
          </mxGeometry>
        </mxCell>
        <mxCell id="w4msts3daRkih6hlYQt3-90" value="" style="shape=flexArrow;endArrow=classic;startArrow=classic;html=1;rounded=0;" edge="1" parent="1">
          <mxGeometry width="100" height="100" relative="1" as="geometry">
            <mxPoint x="1969.23" y="-623" as="sourcePoint" />
            <mxPoint x="1970.23" y="-703" as="targetPoint" />
          </mxGeometry>
        </mxCell>
        <mxCell id="w4msts3daRkih6hlYQt3-46" value="fusion-paas" style="sketch=0;outlineConnect=0;fontColor=#232F3E;gradientColor=none;fillColor=#232F3D;strokeColor=none;dashed=0;verticalLabelPosition=bottom;verticalAlign=top;align=center;html=1;fontSize=14;fontStyle=0;aspect=fixed;pointerEvents=1;shape=mxgraph.aws4.external_sdk;" vertex="1" parent="1">
          <mxGeometry x="1831" y="-567" width="69.74" height="80" as="geometry" />
        </mxCell>
        <mxCell id="w4msts3daRkih6hlYQt3-50" value="sys-storage" style="sketch=0;outlineConnect=0;fontColor=#232F3E;gradientColor=none;fillColor=#232F3D;strokeColor=none;dashed=0;verticalLabelPosition=bottom;verticalAlign=top;align=center;html=1;fontSize=14;fontStyle=0;aspect=fixed;pointerEvents=1;shape=mxgraph.aws4.external_sdk;" vertex="1" parent="1">
          <mxGeometry x="2211.26" y="-567" width="69.74" height="80" as="geometry" />
        </mxCell>
        <mxCell id="w4msts3daRkih6hlYQt3-59" value="sys-gateway" style="sketch=0;outlineConnect=0;fontColor=#232F3E;gradientColor=none;fillColor=#232F3D;strokeColor=none;dashed=0;verticalLabelPosition=bottom;verticalAlign=top;align=center;html=1;fontSize=14;fontStyle=0;aspect=fixed;pointerEvents=1;shape=mxgraph.aws4.external_sdk;" vertex="1" parent="1">
          <mxGeometry x="1831" y="-410" width="69.74" height="80" as="geometry" />
        </mxCell>
        <mxCell id="w4msts3daRkih6hlYQt3-61" value="sys-system" style="sketch=0;outlineConnect=0;fontColor=#232F3E;gradientColor=none;fillColor=#232F3D;strokeColor=none;dashed=0;verticalLabelPosition=bottom;verticalAlign=top;align=center;html=1;fontSize=14;fontStyle=0;aspect=fixed;pointerEvents=1;shape=mxgraph.aws4.external_sdk;" vertex="1" parent="1">
          <mxGeometry x="2021" y="-410" width="69.74" height="80" as="geometry" />
        </mxCell>
        <mxCell id="w4msts3daRkih6hlYQt3-62" value="subject-portal" style="sketch=0;outlineConnect=0;fontColor=#232F3E;gradientColor=none;fillColor=#232F3D;strokeColor=none;dashed=0;verticalLabelPosition=bottom;verticalAlign=top;align=center;html=1;fontSize=14;fontStyle=0;aspect=fixed;pointerEvents=1;shape=mxgraph.aws4.external_sdk;" vertex="1" parent="1">
          <mxGeometry x="2211.26" y="-410" width="69.74" height="80" as="geometry" />
        </mxCell>
        <mxCell id="w4msts3daRkih6hlYQt3-64" value="sys-user" style="sketch=0;outlineConnect=0;fontColor=#232F3E;gradientColor=none;fillColor=#232F3D;strokeColor=none;dashed=0;verticalLabelPosition=bottom;verticalAlign=top;align=center;html=1;fontSize=14;fontStyle=0;aspect=fixed;pointerEvents=1;shape=mxgraph.aws4.external_sdk;" vertex="1" parent="1">
          <mxGeometry x="2021" y="-567" width="69.74" height="80" as="geometry" />
        </mxCell>
        <mxCell id="w4msts3daRkih6hlYQt3-65" value="sys-auth" style="sketch=0;outlineConnect=0;fontColor=#232F3E;gradientColor=none;fillColor=#232F3D;strokeColor=none;dashed=0;verticalLabelPosition=bottom;verticalAlign=top;align=center;html=1;fontSize=14;fontStyle=0;aspect=fixed;pointerEvents=1;shape=mxgraph.aws4.external_sdk;" vertex="1" parent="1">
          <mxGeometry x="1641" y="-567" width="69.74" height="80" as="geometry" />
        </mxCell>
        <mxCell id="w4msts3daRkih6hlYQt3-66" value="subject-biz" style="sketch=0;outlineConnect=0;fontColor=#232F3E;gradientColor=none;fillColor=#232F3D;strokeColor=none;dashed=0;verticalLabelPosition=bottom;verticalAlign=top;align=center;html=1;fontSize=14;fontStyle=0;aspect=fixed;pointerEvents=1;shape=mxgraph.aws4.external_sdk;" vertex="1" parent="1">
          <mxGeometry x="1641" y="-410" width="69.74" height="80" as="geometry" />
        </mxCell>
        <mxCell id="w4msts3daRkih6hlYQt3-94" style="edgeStyle=none;rounded=0;orthogonalLoop=1;jettySize=auto;html=1;" edge="1" parent="1" source="w4msts3daRkih6hlYQt3-91" target="w4msts3daRkih6hlYQt3-45">
          <mxGeometry relative="1" as="geometry" />
        </mxCell>
        <mxCell id="w4msts3daRkih6hlYQt3-91" value="&lt;span style=&quot;color: rgb(35, 47, 62); font-family: Helvetica; font-size: 14px; font-style: normal; font-variant-ligatures: normal; font-variant-caps: normal; font-weight: 400; letter-spacing: normal; orphans: 2; text-align: center; text-indent: 0px; text-transform: none; widows: 2; word-spacing: 0px; -webkit-text-stroke-width: 0px; white-space: nowrap; background-color: rgb(251, 251, 251); text-decoration-thickness: initial; text-decoration-style: initial; text-decoration-color: initial; display: inline !important; float: none;&quot;&gt;fusion-app&lt;/span&gt;" style="sketch=0;outlineConnect=0;fontColor=#232F3E;gradientColor=none;fillColor=#232F3D;strokeColor=none;dashed=0;verticalLabelPosition=bottom;verticalAlign=top;align=center;html=1;fontSize=12;fontStyle=0;aspect=fixed;pointerEvents=1;shape=mxgraph.aws4.management_console2;" vertex="1" parent="1">
          <mxGeometry x="3143" y="70" width="78" height="69" as="geometry" />
        </mxCell>
        <mxCell id="w4msts3daRkih6hlYQt3-95" style="edgeStyle=none;rounded=0;orthogonalLoop=1;jettySize=auto;html=1;" edge="1" parent="1" source="w4msts3daRkih6hlYQt3-93" target="w4msts3daRkih6hlYQt3-45">
          <mxGeometry relative="1" as="geometry" />
        </mxCell>
        <mxCell id="w4msts3daRkih6hlYQt3-93" value="&lt;span style=&quot;color: rgb(35, 47, 62); font-family: Helvetica; font-size: 14px; font-style: normal; font-variant-ligatures: normal; font-variant-caps: normal; font-weight: 400; letter-spacing: normal; orphans: 2; text-align: center; text-indent: 0px; text-transform: none; widows: 2; word-spacing: 0px; -webkit-text-stroke-width: 0px; white-space: nowrap; background-color: rgb(251, 251, 251); text-decoration-thickness: initial; text-decoration-style: initial; text-decoration-color: initial; display: inline !important; float: none;&quot;&gt;fusion-admin&lt;/span&gt;" style="sketch=0;outlineConnect=0;fontColor=#232F3E;gradientColor=none;fillColor=#232F3D;strokeColor=none;dashed=0;verticalLabelPosition=bottom;verticalAlign=top;align=center;html=1;fontSize=12;fontStyle=0;aspect=fixed;pointerEvents=1;shape=mxgraph.aws4.management_console2;" vertex="1" parent="1">
          <mxGeometry x="3343" y="70" width="78" height="69" as="geometry" />
        </mxCell>
        <mxCell id="w4msts3daRkih6hlYQt3-105" value="iot-center" style="sketch=0;outlineConnect=0;fontColor=#232F3E;gradientColor=none;fillColor=#232F3D;strokeColor=none;dashed=0;verticalLabelPosition=bottom;verticalAlign=top;align=center;html=1;fontSize=14;fontStyle=0;aspect=fixed;pointerEvents=1;shape=mxgraph.aws4.external_sdk;" vertex="1" parent="1">
          <mxGeometry x="1935.13" y="-128" width="69.74" height="80" as="geometry" />
        </mxCell>
        <mxCell id="w4msts3daRkih6hlYQt3-112" style="edgeStyle=none;rounded=0;orthogonalLoop=1;jettySize=auto;html=1;" edge="1" parent="1" source="w4msts3daRkih6hlYQt3-106" target="w4msts3daRkih6hlYQt3-45">
          <mxGeometry relative="1" as="geometry" />
        </mxCell>
        <mxCell id="w4msts3daRkih6hlYQt3-106" value="iot-center-front" style="sketch=0;outlineConnect=0;fontColor=#232F3E;gradientColor=none;fillColor=#232F3D;strokeColor=none;dashed=0;verticalLabelPosition=bottom;verticalAlign=top;align=center;html=1;fontSize=14;fontStyle=0;aspect=fixed;pointerEvents=1;shape=mxgraph.aws4.management_console2;" vertex="1" parent="1">
          <mxGeometry x="2741.8" y="70" width="78" height="69" as="geometry" />
        </mxCell>
        <mxCell id="w4msts3daRkih6hlYQt3-110" value="" style="edgeStyle=none;rounded=0;orthogonalLoop=1;jettySize=auto;html=1;" edge="1" parent="1" source="w4msts3daRkih6hlYQt3-107" target="w4msts3daRkih6hlYQt3-105">
          <mxGeometry relative="1" as="geometry" />
        </mxCell>
        <mxCell id="w4msts3daRkih6hlYQt3-107" value="opengemini" style="sketch=0;outlineConnect=0;fontColor=#232F3E;gradientColor=none;fillColor=#232F3D;strokeColor=none;dashed=0;verticalLabelPosition=bottom;verticalAlign=top;align=center;html=1;fontSize=14;fontStyle=0;aspect=fixed;pointerEvents=1;shape=mxgraph.aws4.generic_database;" vertex="1" parent="1">
          <mxGeometry x="2120" y="-126" width="59" height="78" as="geometry" />
        </mxCell>
        <mxCell id="w4msts3daRkih6hlYQt3-109" value="" style="edgeStyle=none;rounded=0;orthogonalLoop=1;jettySize=auto;html=1;" edge="1" parent="1" source="w4msts3daRkih6hlYQt3-108" target="w4msts3daRkih6hlYQt3-105">
          <mxGeometry relative="1" as="geometry" />
        </mxCell>
        <mxCell id="w4msts3daRkih6hlYQt3-108" value="emq" style="sketch=0;outlineConnect=0;fontColor=#232F3E;gradientColor=none;fillColor=#232F3D;strokeColor=none;dashed=0;verticalLabelPosition=bottom;verticalAlign=top;align=center;html=1;fontSize=14;fontStyle=0;aspect=fixed;pointerEvents=1;shape=mxgraph.aws4.servers;" vertex="1" parent="1">
          <mxGeometry x="1740" y="-126" width="78" height="78" as="geometry" />
        </mxCell>
      </root>
    </mxGraphModel>
  </diagram>
</mxfile>
